<svg width="25" height="24" viewBox="0 0 25 24" fill="none" xmlns="http://www.w3.org/2000/svg">
<g id="home icon">
<g id="Vector">
<path d="M8.57099 22.675H6.02063C3.20359 22.675 0.919922 20.4342 0.919922 17.67V9.79668C0.919922 8.04652 1.85158 6.4235 3.37692 5.51639L9.75281 1.72474C11.3778 0.758421 13.4153 0.758421 15.0402 1.72474L21.4161 5.51639C22.9415 6.4235 23.8731 8.04652 23.8731 9.79668V17.67C23.8731 20.4342 21.5894 22.675 18.7724 22.675H16.2221M8.57099 22.675V17.67C8.57099 15.5968 10.2837 13.9163 12.3965 13.9163C14.5094 13.9163 16.2221 15.5968 16.2221 17.67V22.675M8.57099 22.675H16.2221H8.57099Z" fill="#EF761E"/>
<path d="M8.57099 22.675H6.02063C3.20359 22.675 0.919922 20.4342 0.919922 17.67V9.79668C0.919922 8.04652 1.85158 6.4235 3.37692 5.51639L9.75281 1.72474C11.3778 0.758421 13.4153 0.758421 15.0402 1.72474L21.4161 5.51639C22.9415 6.4235 23.8731 8.04652 23.8731 9.79668V17.67C23.8731 20.4342 21.5894 22.675 18.7724 22.675H16.2221M8.57099 22.675V17.67C8.57099 15.5968 10.2837 13.9163 12.3965 13.9163C14.5094 13.9163 16.2221 15.5968 16.2221 17.67V22.675M8.57099 22.675H16.2221" stroke="white" stroke-width="1.5" stroke-linecap="round" stroke-linejoin="round"/>
</g>
</g>
</svg>
