<svg width="25" height="26" viewBox="0 0 25 26" fill="none" xmlns="http://www.w3.org/2000/svg">
<g id="&#240;&#159;&#166;&#134; icon &#34;thumbs up&#34;">
<path id="Vector" d="M18.6729 24.5419H1.81741C1.36597 24.5419 1 24.176 1 23.7245V10.3735C1 9.92204 1.36597 9.55607 1.81741 9.55607H5.58787C6.54496 9.55607 7.43187 9.05391 7.92427 8.23322L11.6168 2.07897C12.4136 0.75105 14.2903 0.624815 15.2577 1.83409C15.7136 2.40408 15.8606 3.16169 15.6508 3.86086L14.258 8.50378C14.1006 9.02824 14.4934 9.55607 15.0409 9.55607H21.2738C23.0703 9.55607 24.3752 11.2645 23.9024 12.9976L21.3016 22.5341C20.9783 23.7196 19.9016 24.5419 18.6729 24.5419Z" stroke="black" stroke-linecap="round"/>
<path id="Vector_2" d="M5.76807 24.5417V9.55591" stroke="black" stroke-linecap="round" stroke-linejoin="round"/>
</g>
</svg>
