<svg width="44" height="5" viewBox="0 0 44 5" fill="none" xmlns="http://www.w3.org/2000/svg">
<g id="Pontos - imagens">
<path d="M26.1125 5C24.8792 5 23.8794 3.88071 23.8794 2.5C23.8794 1.11929 24.8792 0 26.1125 0C27.3458 0 28.3455 1.11929 28.3455 2.5C28.3455 3.88071 27.3458 5 26.1125 5ZM33.556 5C32.3227 5 31.323 3.88071 31.323 2.5C31.323 1.11929 32.3227 0 33.556 0C34.7893 0 35.7891 1.11929 35.7891 2.5C35.7891 3.88071 34.7893 5 33.556 5ZM40.9995 5C39.7663 5 38.7665 3.88071 38.7665 2.5C38.7665 1.11929 39.7663 0 40.9995 0C42.2328 0 43.2326 1.11929 43.2326 2.5C43.2326 3.88071 42.2328 5 40.9995 5Z" fill="#979797"/>
<path d="M2.57233 5C1.26197 5 0.199707 3.88071 0.199707 2.5C0.199707 1.11929 1.26197 0 2.57233 0C3.8827 0 4.94496 1.11929 4.94496 2.5C4.94496 3.88071 3.8827 5 2.57233 5ZM10.4811 5C9.17072 5 8.10845 3.88071 8.10845 2.5C8.10845 1.11929 9.17072 0 10.4811 0C11.7914 0 12.8537 1.11929 12.8537 2.5C12.8537 3.88071 11.7914 5 10.4811 5ZM18.3898 5C17.0795 5 16.0172 3.88071 16.0172 2.5C16.0172 1.11929 17.0795 0 18.3898 0C19.7002 0 20.7625 1.11929 20.7625 2.5C20.7625 3.88071 19.7002 5 18.3898 5Z" fill="#979797"/>
<path d="M4.61334 2.5C4.61334 3.88071 3.62531 5 2.40652 5C1.18773 5 0.199707 3.88071 0.199707 2.5C0.199707 1.11929 1.18773 0 2.40652 0C3.62531 0 4.61334 1.11929 4.61334 2.5Z" fill="#EF761E"/>
</g>
</svg>
