<svg width="18" height="16" viewBox="0 0 18 16" fill="none" xmlns="http://www.w3.org/2000/svg">
<g id="Menu de a&#195;&#167;&#195;&#181;es">
<path id="ellipsis" d="M10.8127 13C10.8127 13.8284 10.0716 14.5 9.15755 14.5C8.24346 14.5 7.50244 13.8284 7.50244 13C7.50244 12.1716 8.24346 11.5 9.15755 11.5C10.0716 11.5 10.8127 12.1716 10.8127 13ZM10.8127 8C10.8127 8.82843 10.0716 9.5 9.15755 9.5C8.24346 9.5 7.50244 8.82843 7.50244 8C7.50244 7.17157 8.24346 6.5 9.15755 6.5C10.0716 6.5 10.8127 7.17157 10.8127 8ZM10.8127 3C10.8127 3.82843 10.0716 4.5 9.15755 4.5C8.24346 4.5 7.50244 3.82843 7.50244 3C7.50244 2.17157 8.24346 1.5 9.15755 1.5C10.0716 1.5 10.8127 2.17157 10.8127 3Z" fill="black"/>
</g>
</svg>
