<svg width="64" height="64" viewBox="0 0 64 64" fill="none" xmlns="http://www.w3.org/2000/svg">
<g id="message">
<path id="message_2" fill-rule="evenodd" clip-rule="evenodd" d="M29.6062 31.9798L24.3589 30.2307C22.0057 29.4463 20.8291 29.0541 20.8291 28.3333C20.8291 27.6126 22.0057 27.2204 24.3589 26.436L38.8721 21.5983C40.5279 21.0463 41.3558 20.7704 41.7928 21.2074C42.2298 21.6444 41.9538 22.4723 41.4019 24.1281L36.5642 38.6412C35.7798 40.9945 35.3876 42.1711 34.6668 42.1711C33.9461 42.1711 33.5539 40.9945 32.7695 38.6412L31.0204 33.394L36.7073 27.7071C37.0978 27.3166 37.0978 26.6834 36.7073 26.2929C36.3167 25.9024 35.6836 25.9024 35.2931 26.2929L29.6062 31.9798Z" fill="#27AAE4"/>
<g id="circle" filter="url(#filter0_d_695_99)">
<circle cx="25" cy="25" r="24" transform="matrix(-1 0 0 1 57 6)" stroke="#27AAE4" stroke-width="2"/>
</g>
</g>
<defs>
<filter id="filter0_d_695_99" x="0" y="0" width="64" height="64" filterUnits="userSpaceOnUse" color-interpolation-filters="sRGB">
<feFlood flood-opacity="0" result="BackgroundImageFix"/>
<feColorMatrix in="SourceAlpha" type="matrix" values="0 0 0 0 0 0 0 0 0 0 0 0 0 0 0 0 0 0 127 0" result="hardAlpha"/>
<feOffset dy="1"/>
<feGaussianBlur stdDeviation="3.5"/>
<feColorMatrix type="matrix" values="0 0 0 0 0 0 0 0 0 0 0 0 0 0 0 0 0 0 0.16 0"/>
<feBlend mode="normal" in2="BackgroundImageFix" result="effect1_dropShadow_695_99"/>
<feBlend mode="normal" in="SourceGraphic" in2="effect1_dropShadow_695_99" result="shape"/>
</filter>
</defs>
</svg>
